<?xml version="1.0" encoding="UTF-8" standalone="no"?>
<!-- Generator: Adobe Illustrator 26.0.2, SVG Export Plug-In . SVG Version: 6.00 Build 0)  -->

<svg
   version="1.1"
   id="Vrstva_1"
   x="0px"
   y="0px"
   viewBox="0 0 166.32999 166.33"
   xml:space="preserve"
   sodipodi:docname="sdg logo.svg"
   width="166.33"
   height="166.33"
   inkscape:version="1.1 (c68e22c387, 2021-05-23)"
   xmlns:inkscape="http://www.inkscape.org/namespaces/inkscape"
   xmlns:sodipodi="http://sodipodi.sourceforge.net/DTD/sodipodi-0.dtd"
   xmlns="http://www.w3.org/2000/svg"
   xmlns:svg="http://www.w3.org/2000/svg"><defs
   id="defs45" /><sodipodi:namedview
   id="namedview43"
   pagecolor="#ffffff"
   bordercolor="#666666"
   borderopacity="1.0"
   inkscape:pageshadow="2"
   inkscape:pageopacity="0.0"
   inkscape:pagecheckerboard="0"
   showgrid="false"
   inkscape:zoom="1.0369526"
   inkscape:cx="83.41751"
   inkscape:cy="82.935328"
   inkscape:window-width="3840"
   inkscape:window-height="2066"
   inkscape:window-x="-11"
   inkscape:window-y="-11"
   inkscape:window-maximized="1"
   inkscape:current-layer="Vrstva_1" />
<style
   type="text/css"
   id="style2">
	.st0{fill:#F7F6F7;}
	.st1{fill:#64AD35;}
	.st2{fill:#E7B717;}
	.st3{fill:#C31A23;}
	.st4{fill:#489835;}
	.st5{fill:#417F3D;}
	.st6{fill:#F8C300;}
	.st7{fill:#E23623;}
	.st8{fill:#F39D19;}
	.st9{fill:#2693D1;}
	.st10{fill:#A4183D;}
	.st11{fill:#3CB9E1;}
	.st12{fill:#E86120;}
	.st13{fill:#DE1931;}
	.st14{fill:#D80460;}
	.st15{fill:#1B4469;}
	.st16{fill:#CA9A12;}
	.st17{fill:#05659B;}
</style>
<rect
   x="0"
   y="0"
   class="st0"
   width="166.33"
   height="166.33"
   id="rect4" />
<g
   id="g40"
   transform="translate(-214.25999,-337.89999)">
	<path
   class="st1"
   d="m 260.99,400.74 c 1.82,-3.09 4.02,-5.92 6.55,-8.43 l -21.49,-23.57 c -5.41,5.17 -10.02,11.16 -13.65,17.76 z"
   id="path6" />
	<path
   class="st2"
   d="m 313.68,384.09 c 3.26,1.49 6.28,3.4 9.01,5.65 l 21.55,-23.53 c -5.68,-4.89 -12.11,-8.93 -19.1,-11.92 z"
   id="path8" />
	<path
   class="st3"
   d="m 363.03,391.18 -28.56,14.24 c 1.36,3.18 2.33,6.57 2.86,10.09 l 31.77,-3 c -0.94,-7.52 -3.02,-14.69 -6.07,-21.33"
   id="path10" />
	<path
   class="st4"
   d="m 332.42,401.29 28.56,-14.24 c -3.54,-6.57 -8.05,-12.55 -13.35,-17.72 l -21.55,23.53 c 2.46,2.52 4.59,5.35 6.34,8.43"
   id="path12" />
	<path
   class="st5"
   d="m 255.32,421.59 c 0,-0.64 0.02,-1.29 0.05,-1.92 l -31.78,-2.84 c -0.1,1.57 -0.16,3.17 -0.16,4.77 0,6.09 0.76,12.02 2.16,17.68 l 30.7,-8.81 c -0.63,-2.87 -0.97,-5.83 -0.97,-8.88"
   id="path14" />
	<path
   class="st6"
   d="m 328.42,447.71 c -2.26,2.75 -4.87,5.2 -7.75,7.29 l 16.78,27.17 c 6.23,-4.22 11.77,-9.38 16.43,-15.26 z"
   id="path16" />
	<path
   class="st7"
   d="m 337.78,421.59 c 0,3.01 -0.33,5.94 -0.95,8.77 l 30.69,8.82 c 1.4,-5.63 2.15,-11.53 2.15,-17.59 0,-1.5 -0.05,-3 -0.14,-4.49 l -31.78,3 c 0.02,0.5 0.03,0.99 0.03,1.49"
   id="path18" />
	<path
   class="st8"
   d="m 265.19,448.31 -25.4,19.31 c 4.72,5.82 10.32,10.89 16.59,15.03 l 16.78,-27.14 c -2.97,-2.04 -5.64,-4.46 -7.97,-7.2"
   id="path20" />
	<path
   class="st9"
   d="m 255.83,415.08 c 0.57,-3.59 1.61,-7.02 3.05,-10.24 l -28.56,-14.22 c -3.15,6.71 -5.31,13.98 -6.3,21.61 z"
   id="path22" />
	<path
   class="st10"
   d="M 333.55,484.63 316.79,457.5 c -3.05,1.72 -6.32,3.07 -9.78,3.97 l 5.92,31.39 c 7.35,-1.7 14.29,-4.5 20.62,-8.23"
   id="path24" />
	<path
   class="st11"
   d="m 335.61,434.8 c -1.11,3.27 -2.62,6.35 -4.46,9.19 l 25.49,19.22 c 4.14,-5.95 7.41,-12.54 9.64,-19.59 z"
   id="path26" />
	<path
   class="st12"
   d="m 302.49,462.38 c -1.94,0.28 -3.93,0.43 -5.94,0.43 -1.62,0 -3.23,-0.1 -4.8,-0.28 l -5.91,31.39 c 3.5,0.52 7.07,0.79 10.71,0.79 4.03,0 7.99,-0.33 11.85,-0.96 z"
   id="path28" />
	<path
   class="st13"
   d="m 299.18,380.44 c 3.54,0.23 6.96,0.9 10.2,1.97 l 11.46,-29.79 c -6.82,-2.41 -14.1,-3.83 -21.67,-4.1 v 31.92 z"
   id="path30" />
	<path
   class="st14"
   d="m 287.21,461.75 c -3.57,-0.83 -6.97,-2.13 -10.12,-3.83 l -16.79,27.15 c 6.46,3.7 13.52,6.44 21.01,8.03 z"
   id="path32" />
	<path
   class="st15"
   d="m 284.16,382.26 c 3.31,-1.05 6.8,-1.68 10.42,-1.85 v -31.92 c -7.68,0.2 -15.04,1.6 -21.96,4 z"
   id="path34" />
	<path
   class="st16"
   d="m 262.39,444.65 c -2.02,-2.99 -3.67,-6.27 -4.86,-9.75 l -30.67,8.8 c 2.32,7.32 5.76,14.13 10.13,20.25 z"
   id="path36" />
	<path
   class="st17"
   d="m 271,389.25 c 2.7,-2.13 5.66,-3.93 8.84,-5.35 L 268.3,354.15 c -6.87,2.88 -13.2,6.79 -18.81,11.52 z"
   id="path38" />
</g>
</svg>
